<?xml version="1.0" encoding="UTF-8"?><svg id="Capa_1" xmlns="http://www.w3.org/2000/svg" viewBox="0 0 275.656 158.967"><defs><style>.cls-1{fill:#9dd9bf;}.cls-1,.cls-2,.cls-3{stroke-width:0px;}.cls-2{fill:#1f2e41;}.cls-3{fill:#368089;}</style></defs><g id="Capa_2"><path class="cls-3" d="m113.53,8.79c-.132.045-.246.123-.327.231-.536.707-2.417,3.455,1.411,2.591,0,0,67.694-22.228,81.983,39,.099.423.595.656,1.004.452,1.881-.943,7.137-2.757,16.195.136.478.153.973-.18.944-.652-.552-8.842-7.797-73.736-101.21-41.757h0Z"/><path class="cls-1" d="m53.588,51.791c.221,0,.415-.152.486-.383,1.365-4.434,15.754-45.297,75.745-19.916,0,0,1.894-.273.974-2.532-.047-.115-.128-.21-.231-.267-3.764-2.093-75.99-41.303-90.943,22.352-.084.359.163.716.499.717l13.469.03h0Z"/><path class="cls-1" d="m66.171,105.63c.208,0,.401.086.532.238,16.492,19.193,51.923,38.585,51.923,38.585,5.869,3.036-.232,2.59-.785,2.545-.027-.002-.05-.005-.076-.011-1.422-.297-44.112-9.426-68.138-40.306-.337-.433-.002-1.051.568-1.051h15.976Z"/><path class="cls-3" d="m173.313,133.858c9.761-7.229,24.603-25.181,27.949-29.292.309-.379.098-.933-.397-1.036-5.543-1.157-9.788-5.018-11.369-6.639-.33-.338-.911-.27-1.136.137-3.557,6.414-27.737,46.723-79.202,57.725l-2.013.344c-.105.018-.199.055-.285.114-.33.226-1.172.849-1.33,1.421-.197.715-.141,1.403.337,1.721s.197.662,2.306.609,3.009-.291,3.009-.291c0,0,19.265-2.726,29.081-6.697s28.209-14.056,33.496-18.476"/></g><g id="Capa_3"><path class="cls-2" d="m.001,91.774v-25.957C.001,61.266,1.363,57.624,4.088,54.889c2.725-2.734,6.353-4.102,10.884-4.102s7.964,1.329,10.356,3.984c2.392,2.656,3.589,6.475,3.589,11.455v25.547h-11.895v-25.547c0-2.441-.869-3.662-2.607-3.662-1.68,0-2.52,1.221-2.52,3.662v25.547H0h.001Z"/><path class="cls-2" d="m35.334,62.975h10.957v16.494c0,1.66.693,2.49,2.08,2.49,1.367,0,2.051-.83,2.051-2.49v-16.494h10.957v16.289c0,3.79-1.26,6.987-3.779,9.595s-5.606,3.911-9.258,3.911c-4.16,0-7.51-1.513-10.049-4.541-1.973-2.363-2.959-5.644-2.959-9.844,0,0,0-15.41,0-15.41Z"/><path class="cls-2" d="m77.521,51.784v11.191h4.922v11.572h-4.922c0,2.325.366,3.926,1.099,4.805s2.075,1.318,4.028,1.318v11.514c-.567.019-.986.029-1.26.029-2.48,0-4.819-.576-7.017-1.729-2.197-1.152-3.96-2.714-5.288-4.688-1.68-2.52-2.52-5.859-2.52-10.02v-23.994h10.957v.002Z"/><path class="cls-2" d="m103.859,62.272v11.719c-.762-.429-1.455-.645-2.08-.645-1.992,0-2.988,1.523-2.988,4.57v13.857h-10.957v-15.967c0-4.219,1.152-7.583,3.457-10.093,2.304-2.509,5.38-3.765,9.229-3.765.859,0,1.973.107,3.34.322v.002Z"/><path class="cls-2" d="m118.039,62.565v29.209h-10.957v-29.209h10.957Zm-5.449-13.037c1.484,0,2.769.523,3.853,1.567,1.084,1.045,1.626,2.281,1.626,3.706,0,1.523-.513,2.773-1.538,3.75s-2.339,1.465-3.94,1.465-2.915-.488-3.94-1.465c-1.025-.977-1.538-2.227-1.538-3.75,0-1.425.542-2.661,1.626-3.706,1.084-1.044,2.368-1.567,3.853-1.567h-.002Z"/><path class="cls-2" d="m132.6,78.649c1.914,0,3.56.693,4.937,2.08,1.377,1.387,2.065,3.037,2.065,4.951s-.685,3.541-2.051,4.878c-1.367,1.337-3.018,2.007-4.951,2.007-2.012,0-3.667-.649-4.966-1.948-1.3-1.299-1.949-2.954-1.949-4.966,0-1.953.674-3.608,2.022-4.966,1.348-1.357,2.978-2.036,4.893-2.036h0Z"/><path class="cls-2" d="m175.051,72.233l12.451.322c-.82,6.445-3.052,11.426-6.694,14.941s-8.394,5.273-14.253,5.273c-5.958,0-10.942-1.997-14.956-5.991s-6.021-8.95-6.021-14.868c0-5.957,2.046-10.967,6.138-15.029,4.091-4.062,9.136-6.094,15.132-6.094,5.898,0,10.82,1.992,14.766,5.977,2.734,2.754,4.668,6.592,5.801,11.514l-12.744.85c-1.426-4.375-4.131-6.562-8.115-6.562-2.539,0-4.634.879-6.284,2.637-1.651,1.758-2.476,3.995-2.476,6.709,0,2.618.81,4.78,2.432,6.489,1.621,1.709,3.672,2.563,6.152,2.563,2.52,0,4.526-.751,6.021-2.256,1.494-1.504,2.378-3.662,2.651-6.475h-.001Z"/><path class="cls-2" d="m208.537,80.817v11.338c-.898.156-1.719.234-2.461.234-4.395,0-8.057-1.445-10.986-4.336-2.93-2.89-4.395-6.514-4.395-10.869,0-4.238,1.479-7.832,4.438-10.781s6.558-4.424,10.796-4.424c4.727,0,8.452,1.382,11.177,4.146,2.725,2.764,4.087,6.538,4.087,11.323v14.326h-10.957v-13.535c0-1.542-.376-2.773-1.128-3.691s-1.763-1.377-3.032-1.377c-1.152,0-2.148.42-2.988,1.26-.84.84-1.26,1.836-1.26,2.988,0,1.211.381,2.208,1.143,2.988.762.781,1.729,1.172,2.9,1.172.957,0,1.846-.253,2.666-.762Z"/><path class="cls-2" d="m243.605,62.272v11.719c-.762-.429-1.455-.645-2.08-.645-1.992,0-2.988,1.523-2.988,4.57v13.857h-10.957v-15.967c0-4.219,1.152-7.583,3.457-10.093,2.305-2.509,5.381-3.765,9.229-3.765.859,0,1.973.107,3.34.322v.002Z"/><path class="cls-2" d="m275.539,78.942h-16.611c-.254-.839-.381-1.611-.381-2.314,0-.977.176-1.934.527-2.871h5.566c-.391-2.168-1.611-3.252-3.662-3.252-1.367,0-2.48.582-3.34,1.743-.859,1.162-1.289,2.651-1.289,4.468,0,1.895.415,3.428,1.245,4.6s1.919,1.758,3.267,1.758c1.094,0,2.148-.546,3.164-1.641l6.24,7.5c-2.91,2.285-6.143,3.428-9.697,3.428-4.336,0-7.979-1.455-10.928-4.365s-4.424-6.514-4.424-10.811,1.489-7.891,4.468-10.84c2.979-2.949,6.636-4.424,10.972-4.424,4.238,0,7.798,1.44,10.679,4.321,2.881,2.881,4.321,6.431,4.321,10.649,0,.43-.039,1.113-.117,2.051h0Z"/></g></svg>