<?xml version="1.0" standalone="no"?>
<!DOCTYPE svg PUBLIC "-//W3C//DTD SVG 20010904//EN"
 "http://www.w3.org/TR/2001/REC-SVG-20010904/DTD/svg10.dtd">
<svg version="1.0" xmlns="http://www.w3.org/2000/svg"
 width="676.000000pt" height="676.000000pt" viewBox="0 0 676.000000 676.000000"
 preserveAspectRatio="xMidYMid meet">
<metadata>
Created by potrace 1.14, written by Peter Selinger 2001-2017
</metadata>
<g transform="translate(0.000000,676.000000) scale(0.100000,-0.100000)"
fill="#000000" stroke="none">
<path d="M4118 6755 c-1 -1 -36 -6 -77 -9 -89 -8 -139 -14 -211 -26 -30 -5
-71 -12 -90 -15 -19 -3 -87 -17 -150 -32 -63 -14 -122 -27 -130 -28 -8 -2 -15
-4 -15 -5 0 -1 -7 -3 -15 -5 -8 -1 -60 -15 -115 -30 -55 -15 -106 -28 -112
-28 -7 0 -13 -5 -13 -10 0 -6 -3 -8 -6 -4 -3 3 -26 -3 -50 -13 -24 -11 -44
-17 -44 -15 0 6 -324 -113 -425 -156 -16 -7 -32 -13 -35 -14 -3 -1 -23 -9 -45
-18 -22 -10 -69 -30 -103 -45 -51 -22 -68 -34 -83 -64 -24 -48 -32 -120 -15
-144 17 -23 68 -21 129 5 42 18 192 68 227 76 8 2 27 8 43 14 15 6 27 8 27 6
0 -2 11 0 26 5 14 6 39 12 57 15 18 3 48 10 67 15 19 5 51 12 70 15 19 3 60
10 90 15 173 29 247 34 475 34 231 1 299 -5 477 -38 217 -41 465 -133 632
-235 36 -23 68 -41 71 -41 3 0 13 -6 22 -14 10 -8 54 -41 98 -74 112 -83 241
-207 330 -315 42 -51 82 -99 90 -108 8 -9 15 -21 15 -27 0 -5 4 -12 9 -14 29
-11 221 -354 293 -523 9 -22 25 -60 36 -85 35 -82 115 -327 138 -420 2 -8 19
-76 38 -150 19 -74 33 -136 31 -138 -2 -2 1 -15 6 -29 5 -14 11 -40 13 -57 14
-107 26 -122 79 -94 23 12 47 23 52 24 6 1 33 10 60 19 76 27 265 25 363 -4
17 -5 32 -7 32 -4 0 3 7 0 15 -7 8 -7 15 -9 15 -5 0 4 6 3 13 -2 6 -6 38 -18
70 -28 50 -16 60 -16 68 -4 9 13 7 107 -5 259 -6 62 -8 82 -22 168 -3 20 -7
46 -9 57 -1 11 -5 36 -9 55 -6 37 -13 73 -22 130 -3 19 -8 38 -10 41 -2 4 -6
23 -9 43 -4 20 -17 78 -30 129 -84 333 -176 570 -339 871 -25 47 -154 246
-165 256 -4 3 -19 23 -36 45 -87 117 -395 415 -429 415 -4 0 -16 9 -28 20 -12
11 -34 26 -50 32 -15 7 -28 16 -28 19 0 4 -64 38 -142 77 -172 84 -337 142
-478 168 -14 3 -41 9 -60 14 -19 4 -62 11 -95 15 -32 4 -68 9 -80 12 -22 6
-491 13 -497 8z"/>
<path d="M1938 6075 c-2 -1 -45 -5 -95 -9 -51 -4 -98 -8 -105 -11 -7 -2 -33
-7 -58 -10 -25 -4 -55 -8 -67 -10 -11 -2 -47 -11 -80 -20 -32 -9 -65 -18 -73
-20 -42 -9 -156 -52 -245 -94 -87 -41 -260 -142 -275 -160 -3 -3 -27 -24 -55
-46 -97 -77 -205 -188 -295 -301 -35 -44 -110 -156 -110 -164 0 -4 -3 -10 -7
-12 -12 -5 -37 -51 -102 -183 -112 -228 -171 -389 -240 -661 -30 -119 -34
-151 -19 -160 7 -5 156 -9 330 -9 l318 0 26 80 c33 101 42 123 115 270 60 125
116 226 128 235 4 3 18 23 31 45 13 22 27 42 30 45 3 3 28 34 54 69 46 59 210
230 266 277 215 177 466 303 733 369 10 2 26 6 35 9 9 3 33 8 52 10 19 3 67
10 105 16 98 15 160 19 310 20 134 0 173 -2 285 -15 36 -4 79 -9 95 -11 17 -1
30 -3 30 -4 0 -1 12 -3 28 -5 15 -2 53 -9 85 -16 31 -6 66 -13 77 -14 11 -2
67 -15 125 -30 58 -15 110 -28 115 -30 6 -1 17 -5 25 -8 16 -6 188 -59 205
-63 12 -2 218 -81 260 -99 17 -7 57 -23 89 -36 33 -13 89 -38 125 -55 74 -35
107 -31 117 15 3 14 7 31 9 36 8 30 -31 66 -132 123 -113 63 -278 147 -398
202 -38 18 -77 36 -85 40 -204 99 -748 283 -935 315 -40 7 -80 16 -100 22 -11
4 -31 7 -45 8 -34 3 -113 16 -120 20 -3 2 -36 6 -75 10 -38 4 -83 9 -100 11
-38 5 -382 13 -387 9z"/>
<path d="M4628 4695 c-2 -1 -30 -5 -63 -8 -85 -9 -118 -16 -224 -53 -285 -100
-513 -344 -625 -674 -14 -41 -28 -90 -31 -109 -3 -19 -8 -37 -10 -41 -3 -4 -7
-25 -10 -46 -3 -22 -8 -50 -10 -64 -24 -151 -25 -464 0 -580 3 -14 8 -41 11
-60 17 -108 100 -335 139 -380 8 -8 14 -19 15 -25 0 -5 10 -20 20 -33 11 -12
20 -25 20 -28 0 -8 34 -51 74 -94 177 -189 378 -292 641 -328 82 -11 325 -7
395 7 36 7 72 14 80 16 79 16 318 130 328 157 2 4 8 8 13 8 22 0 148 125 203
203 24 34 57 89 74 122 35 70 87 230 97 295 3 25 8 59 11 77 3 17 1 33 -3 36
-7 5 -103 11 -303 22 -36 2 -103 6 -150 9 -216 15 -227 15 -227 3 -2 -62 -38
-190 -68 -243 -62 -106 -138 -149 -265 -149 -68 0 -94 5 -131 23 -156 76 -220
260 -221 640 -1 116 9 299 17 312 1 3 6 27 9 54 4 27 9 53 12 58 3 4 7 16 9
25 6 28 39 117 46 123 3 3 13 19 22 36 9 17 32 45 52 62 37 33 95 67 95 56 0
-4 6 -2 13 3 18 15 147 8 188 -10 133 -58 195 -185 208 -429 1 -17 -10 -17
231 -4 184 11 389 22 448 25 23 1 23 3 17 64 -4 34 -9 71 -11 82 -3 11 -9 41
-14 68 -45 227 -195 470 -364 591 -117 84 -268 146 -391 162 -16 2 -41 6 -55
10 -26 6 -306 14 -312 9z"/>
<path d="M1220 4653 c-4 -121 1 -2417 4 -2421 3 -3 1 -11 -5 -19 -14 -16 -43
-15 316 -16 l290 0 2 654 c1 608 0 661 -18 759 -10 57 -22 113 -25 125 -6 17
-5 18 10 6 9 -7 16 -20 16 -27 0 -17 176 -363 195 -384 8 -9 15 -22 15 -28 0
-7 5 -12 10 -12 6 0 10 -5 10 -10 0 -6 24 -47 53 -93 29 -45 56 -89 60 -97 4
-8 16 -28 27 -45 11 -16 29 -46 40 -65 11 -19 45 -73 74 -120 50 -78 122 -195
171 -276 60 -100 182 -296 211 -339 l33 -50 295 1 c163 0 299 4 303 8 5 4 8
559 8 1232 l0 1224 -306 0 -306 0 3 -492 c2 -271 5 -515 8 -543 6 -61 15 -141
21 -175 3 -14 7 -50 10 -80 l6 -55 -49 95 c-45 88 -100 186 -159 285 -44 74
-272 430 -282 442 -6 7 -11 15 -11 18 0 4 -21 39 -47 79 -27 40 -53 81 -60 92
-62 103 -189 300 -195 302 -5 2 -8 10 -8 18 0 12 -56 14 -360 14 -198 0 -360
-3 -360 -7z"/>
<path d="M5922 2732 c-78 -146 -95 -174 -207 -342 -121 -181 -154 -229 -189
-273 -14 -17 -40 -50 -57 -72 -65 -85 -155 -197 -204 -251 -165 -185 -356
-379 -495 -504 -161 -144 -409 -335 -565 -436 -33 -21 -62 -41 -65 -44 -9 -9
-222 -136 -280 -166 -30 -16 -57 -31 -60 -34 -7 -7 -239 -120 -243 -118 -1 0
-21 -9 -45 -21 -102 -52 -512 -203 -589 -217 -13 -3 -43 -11 -66 -18 -23 -8
-87 -24 -142 -36 -55 -12 -109 -26 -120 -31 -25 -12 -60 -63 -59 -84 1 -8 2
-22 3 -30 0 -8 11 -24 24 -36 20 -19 29 -21 112 -15 50 3 101 8 115 11 38 8
82 16 110 20 14 3 34 6 45 8 11 3 40 8 65 12 25 4 106 21 180 37 131 29 151
33 197 42 87 18 386 103 438 125 11 5 43 17 70 27 28 9 93 38 145 62 52 25 97
46 100 46 3 1 10 4 15 8 6 3 51 27 100 53 79 42 119 63 191 103 29 16 227 131
244 142 8 5 47 28 85 51 227 137 445 287 580 399 168 140 469 461 670 713 17
21 42 52 58 70 15 18 30 37 35 42 4 6 34 44 67 85 33 41 63 79 68 85 55 73 70
92 80 105 7 8 39 50 72 94 118 155 123 168 64 181 -19 4 -40 11 -49 15 -27 14
-75 33 -87 36 -14 2 -146 88 -182 119 -14 11 -52 46 -84 78 -33 31 -67 57 -76
57 -10 0 -36 -37 -69 -98z"/>
<path d="M254 2461 c-2 -2 -35 -3 -73 -2 -62 2 -70 0 -76 -18 -7 -22 5 -40
110 -171 140 -175 333 -378 494 -520 35 -30 68 -60 74 -65 56 -50 228 -185
236 -185 5 0 11 -4 13 -8 3 -8 129 -102 183 -136 16 -11 34 -23 40 -28 5 -5
33 -23 60 -40 28 -17 66 -41 85 -54 68 -44 288 -170 366 -209 43 -22 81 -42
84 -45 6 -6 136 -70 230 -113 116 -52 144 -64 235 -101 50 -20 99 -41 110 -46
55 -26 477 -171 538 -185 12 -3 61 -16 109 -29 91 -25 198 -32 230 -15 15 8
16 14 7 30 -11 21 -139 109 -158 109 -6 0 -11 4 -11 8 0 5 -12 14 -27 21 -14
7 -49 27 -77 45 -28 18 -91 58 -141 89 -49 31 -94 60 -100 65 -5 4 -32 22 -60
40 -140 90 -519 351 -580 399 -6 4 -73 55 -150 113 -77 58 -147 110 -155 117
-8 7 -44 35 -80 63 -36 28 -85 69 -110 90 -25 21 -67 57 -95 80 -232 195 -569
526 -642 630 -8 11 -26 32 -39 45 -23 23 -29 24 -172 25 -216 0 -340 1 -400 3
-30 1 -56 0 -58 -2z"/>
</g>
</svg>
