<?xml version="1.0" encoding="UTF-8"?><svg id="Capa_1" xmlns="http://www.w3.org/2000/svg" viewBox="0 0 39.998 40"><defs><style>.cls-1{fill:#1f2e41;stroke-width:0px;}</style></defs><g id="Outlined"><path class="cls-1" d="m34.154,5.856C30.382,2.082,25.366.002,20.022,0,9.01,0,.048,8.958.044,19.97c-.002,3.52.918,6.956,2.666,9.984l-2.71,10.046,10.466-2.474c2.918,1.592,6.202,2.43,9.546,2.432h.008c11.01,0,19.972-8.96,19.978-19.97.004-5.338-2.072-10.356-5.844-14.132Zm-14.14,30.102c-2.666-.002-5.306-.674-7.632-1.944l-1.346-.734-1.49.352-3.936.93.962-3.568.432-1.604-.83-1.438c-1.396-2.416-2.132-5.176-2.13-7.982.004-8.804,7.17-15.97,15.976-15.97,4.272.002,8.286,1.666,11.304,4.682,3.018,3.02,4.678,7.034,4.674,11.302-.004,8.808-7.172,15.974-15.984,15.974Z"/><path class="cls-1" d="m29.796,27.108c-.416,1.166-2.454,2.29-3.37,2.372-.916.084-1.774.414-5.99-1.248-5.074-2-8.278-7.202-8.526-7.534-.25-.334-2.038-2.706-2.038-5.162s1.29-3.664,1.748-4.162c.458-.5.998-.624,1.332-.624.332,0,.666,0,.956.012.356.014.75.032,1.124.862.444.988,1.414,3.456,1.538,3.706s.208.542.042.874-.25.54-.498.832c-.25.292-.524.65-.748.874-.25.248-.51.52-.22,1.018.292.5,1.292,2.134,2.776,3.456,1.908,1.7,3.514,2.226,4.014,2.478.5.25.79.208,1.082-.126.292-.332,1.248-1.456,1.58-1.956s.666-.416,1.124-.25,2.912,1.374,3.41,1.624c.5.25.832.374.956.582.124.206.124,1.206-.292,2.372Z"/></g></svg>